<?xml version="1.0" encoding="UTF-8" standalone="no"?>
<!-- Created with Inkscape (http://www.inkscape.org/) -->

<svg
   width="210mm"
   height="297mm"
   viewBox="0 0 210 297"
   version="1.1"
   id="svg1"
   xml:space="preserve"
   inkscape:version="1.3 (0e150ed6c4, 2023-07-21)"
   sodipodi:docname="new logo.svg"
   inkscape:export-filename="favicon.png"
   inkscape:export-xdpi="96"
   inkscape:export-ydpi="96"
   xmlns:inkscape="http://www.inkscape.org/namespaces/inkscape"
   xmlns:sodipodi="http://sodipodi.sourceforge.net/DTD/sodipodi-0.dtd"
   xmlns:xlink="http://www.w3.org/1999/xlink"
   xmlns="http://www.w3.org/2000/svg"
   xmlns:svg="http://www.w3.org/2000/svg"><sodipodi:namedview
     id="namedview1"
     pagecolor="#ffffff"
     bordercolor="#000000"
     borderopacity="0.25"
     inkscape:showpageshadow="2"
     inkscape:pageopacity="0.0"
     inkscape:pagecheckerboard="0"
     inkscape:deskcolor="#d1d1d1"
     inkscape:document-units="mm"
     inkscape:zoom="2"
     inkscape:cx="231.25"
     inkscape:cy="599.75001"
     inkscape:window-width="1920"
     inkscape:window-height="1017"
     inkscape:window-x="-8"
     inkscape:window-y="-8"
     inkscape:window-maximized="1"
     inkscape:current-layer="layer2"
     showgrid="false"
     showguides="true"
     inkscape:export-bgcolor="#ffffffff"><inkscape:grid
       id="grid31"
       units="mm"
       originx="0"
       originy="0"
       spacingx="0.99999998"
       spacingy="1"
       empcolor="#0099e5"
       empopacity="0.30196078"
       color="#0099e5"
       opacity="0.14901961"
       empspacing="5"
       dotted="false"
       gridanglex="30"
       gridanglez="30"
       visible="false" /></sodipodi:namedview><defs
     id="defs1"><inkscape:path-effect
       effect="bend_path"
       id="path-effect71"
       is_visible="true"
       lpeversion="1"
       bendpath="m 92.09564,230.87651 c 8.74653,5.62772 33.4861,19.16573 38.61676,-9.20739"
       prop_scale="1.206882"
       scale_y_rel="false"
       vertical="false"
       hide_knot="false"
       bendpath-nodetypes="cc" /><inkscape:path-effect
       effect="bend_path"
       id="path-effect70"
       is_visible="true"
       lpeversion="1"
       bendpath="m 19.690262,229.90917 c 8.842979,-30.77598 34.202003,-27.89443 45.079569,-0.89252"
       prop_scale="1"
       scale_y_rel="false"
       vertical="false"
       hide_knot="false"
       bendpath-nodetypes="cc" /><inkscape:path-effect
       effect="bend_path"
       id="path-effect257"
       is_visible="true"
       lpeversion="1"
       bendpath="m 109.93596,84.281715 c 11.38152,3.281763 27.06287,-11.480289 36.62275,0"
       prop_scale="1"
       scale_y_rel="false"
       vertical="false"
       hide_knot="false"
       bendpath-nodetypes="cc" /><linearGradient
       id="swatch223"><stop
         style="stop-color:#f8d926;stop-opacity:1;"
         offset="0"
         id="stop224" /><stop
         style="stop-color:#f8da29;stop-opacity:1;"
         offset="0.53205127"
         id="stop226" /><stop
         style="stop-color:#f8da29;stop-opacity:0;"
         offset="1"
         id="stop225" /></linearGradient><inkscape:path-effect
       effect="powerstroke"
       id="path-effect198"
       is_visible="true"
       lpeversion="1.3"
       scale_width="1"
       interpolator_type="CubicBezierJohan"
       interpolator_beta="0.2"
       start_linecap_type="zerowidth"
       end_linecap_type="zerowidth"
       offset_points="1,0.17192496"
       linejoin_type="extrp_arc"
       miter_limit="4"
       not_jump="false"
       sort_points="true"
       message="&lt;b&gt;Ctrl + click&lt;/b&gt; on existing node and move it" /><inkscape:path-effect
       effect="fill_between_many"
       method="bsplinespiro"
       autoreverse="false"
       close="false"
       join="false"
       linkedpaths="#path198,0,1"
       id="path-effect199" /><inkscape:path-effect
       effect="bend_path"
       id="path-effect257-7"
       is_visible="true"
       lpeversion="1"
       bendpath="m 109.93596,84.281715 c 11.38152,3.281763 27.06287,-11.480289 36.62275,0"
       prop_scale="1"
       scale_y_rel="false"
       vertical="false"
       hide_knot="false"
       bendpath-nodetypes="cc" /><linearGradient
       id="linearGradient243"
       inkscape:collect="always"><stop
         style="stop-color:#fd500c;stop-opacity:0;"
         offset="0"
         id="stop244" /><stop
         style="stop-color:#fd500c;stop-opacity:1;"
         offset="0.77491963"
         id="stop243" /></linearGradient><linearGradient
       id="linearGradient238"
       inkscape:collect="always"><stop
         style="stop-color:#3caf0f;stop-opacity:0;"
         offset="0"
         id="stop240" /><stop
         style="stop-color:#3caf0f;stop-opacity:1;"
         offset="1"
         id="stop239" /></linearGradient><linearGradient
       id="linearGradient234"
       inkscape:collect="always"><stop
         style="stop-color:#760af6;stop-opacity:1;"
         offset="0"
         id="stop235" /><stop
         style="stop-color:#760af6;stop-opacity:0;"
         offset="1"
         id="stop236" /></linearGradient><linearGradient
       id="linearGradient233"
       inkscape:collect="always"><stop
         style="stop-color:#760af6;stop-opacity:0;"
         offset="0"
         id="stop234" /><stop
         style="stop-color:#760af6;stop-opacity:1;"
         offset="0.90996784"
         id="stop233" /></linearGradient><linearGradient
       id="linearGradient226"
       inkscape:collect="always"><stop
         style="stop-color:#0a2ce0;stop-opacity:0;"
         offset="0.04906902"
         id="stop228" /><stop
         style="stop-color:#0a2ce0;stop-opacity:0.38431373;"
         offset="0.25320512"
         id="stop229" /><stop
         style="stop-color:#0a2ce0;stop-opacity:0.76862745;"
         offset="0.68589741"
         id="stop227" /></linearGradient><linearGradient
       id="linearGradient215"
       inkscape:collect="always"><stop
         style="stop-color:#f8da28;stop-opacity:0.0040568"
         offset="0"
         id="stop217" /><stop
         style="stop-color:#dfc007;stop-opacity:0.99594319;"
         offset="1"
         id="stop216" /></linearGradient><linearGradient
       id="linearGradient214"
       inkscape:collect="always"><stop
         style="stop-color:#0a79e0;stop-opacity:0;"
         offset="0"
         id="stop215" /><stop
         style="stop-color:#0a16e0;stop-opacity:1;"
         offset="1"
         id="stop214" /></linearGradient><inkscape:path-effect
       effect="powerstroke"
       id="path-effect198-3"
       is_visible="true"
       lpeversion="1.3"
       scale_width="1"
       interpolator_type="CubicBezierJohan"
       interpolator_beta="0.2"
       start_linecap_type="zerowidth"
       end_linecap_type="zerowidth"
       offset_points="1,0.17192496"
       linejoin_type="extrp_arc"
       miter_limit="4"
       not_jump="false"
       sort_points="true"
       message="&lt;b&gt;Ctrl + click&lt;/b&gt; on existing node and move it" /><inkscape:path-effect
       effect="fill_between_many"
       method="bsplinespiro"
       autoreverse="false"
       close="false"
       join="false"
       linkedpaths="#path198,0,1"
       id="path-effect199-7" /><radialGradient
       inkscape:collect="always"
       xlink:href="#linearGradient214"
       id="radialGradient215"
       cx="173.26022"
       cy="115.79845"
       fx="173.26022"
       fy="115.79845"
       r="9.2608891"
       gradientUnits="userSpaceOnUse" /><filter
       inkscape:collect="always"
       style="color-interpolation-filters:sRGB"
       id="filter215"
       x="-0.051028398"
       y="-0.05102901"
       width="1.1020563"
       height="1.102057"><feGaussianBlur
         inkscape:collect="always"
         stdDeviation="0.30005281"
         id="feGaussianBlur215" /></filter><radialGradient
       inkscape:collect="always"
       xlink:href="#linearGradient215"
       id="radialGradient217"
       cx="139.43648"
       cy="126.4995"
       fx="139.43648"
       fy="126.4995"
       r="9.2608891"
       gradientUnits="userSpaceOnUse" /><filter
       inkscape:collect="always"
       style="color-interpolation-filters:sRGB"
       id="filter217"
       x="-0.027043822"
       y="-0.027043822"
       width="1.0540876"
       height="1.0540876"><feGaussianBlur
         inkscape:collect="always"
         stdDeviation="0.20870819"
         id="feGaussianBlur217" /></filter><linearGradient
       inkscape:collect="always"
       xlink:href="#swatch223"
       id="linearGradient225"
       gradientUnits="userSpaceOnUse"
       x1="136.15422"
       y1="137.5137"
       x2="138.97505"
       y2="153.13907" /><linearGradient
       inkscape:collect="always"
       xlink:href="#linearGradient226"
       id="linearGradient228"
       x1="146.5685"
       y1="122.84197"
       x2="160.29558"
       y2="118.70585"
       gradientUnits="userSpaceOnUse" /><radialGradient
       inkscape:collect="always"
       xlink:href="#linearGradient233"
       id="radialGradient234"
       cx="148.12242"
       cy="157.64732"
       fx="148.12242"
       fy="157.64732"
       r="9.2608891"
       gradientUnits="userSpaceOnUse" /><filter
       inkscape:collect="always"
       style="color-interpolation-filters:sRGB"
       id="filter234"
       x="-0.027779673"
       y="-0.027779673"
       width="1.0555593"
       height="1.0555593"><feGaussianBlur
         inkscape:collect="always"
         stdDeviation="0.21438706"
         id="feGaussianBlur234" /></filter><linearGradient
       inkscape:collect="always"
       xlink:href="#linearGradient234"
       id="linearGradient236"
       x1="154.51037"
       y1="162.09588"
       x2="168.68359"
       y2="162.09588"
       gradientUnits="userSpaceOnUse" /><radialGradient
       inkscape:collect="always"
       xlink:href="#linearGradient238"
       id="radialGradient238"
       cx="182.80426"
       cy="149.26842"
       fx="182.80426"
       fy="149.26842"
       r="9.2608891"
       gradientUnits="userSpaceOnUse" /><filter
       inkscape:collect="always"
       style="color-interpolation-filters:sRGB"
       id="filter238"
       x="-0.022836126"
       y="-0.022836126"
       width="1.0456723"
       height="1.0456723"><feGaussianBlur
         inkscape:collect="always"
         stdDeviation="0.17623569"
         id="feGaussianBlur238" /></filter><linearGradient
       inkscape:collect="always"
       xlink:href="#linearGradient238"
       id="linearGradient240"
       x1="173.31024"
       y1="136.85834"
       x2="183.22569"
       y2="136.85834"
       gradientUnits="userSpaceOnUse" /><filter
       inkscape:collect="always"
       style="color-interpolation-filters:sRGB"
       id="filter240"
       x="-0.091602375"
       y="-0.066794139"
       width="1.1832047"
       height="1.1335883"><feGaussianBlur
         inkscape:collect="always"
         stdDeviation="0.37844948"
         id="feGaussianBlur240" /></filter><filter
       inkscape:collect="always"
       style="color-interpolation-filters:sRGB"
       id="filter241"
       x="-0.099043508"
       y="-0.066460181"
       width="1.198087"
       height="1.1329204"><feGaussianBlur
         inkscape:collect="always"
         stdDeviation="0.3846225"
         id="feGaussianBlur241" /></filter><filter
       inkscape:collect="always"
       style="color-interpolation-filters:sRGB"
       id="filter242"
       x="-0.070637238"
       y="-0.11192286"
       width="1.1412745"
       height="1.2238457"><feGaussianBlur
         inkscape:collect="always"
         stdDeviation="0.41714881"
         id="feGaussianBlur242" /></filter><filter
       inkscape:collect="always"
       style="color-interpolation-filters:sRGB"
       id="filter243"
       x="-0.04721772"
       y="-0.069414896"
       width="1.0944354"
       height="1.1388298"><feGaussianBlur
         inkscape:collect="always"
         stdDeviation="0.27237855"
         id="feGaussianBlur243" /></filter><radialGradient
       inkscape:collect="always"
       xlink:href="#linearGradient243"
       id="radialGradient244"
       cx="162.20889"
       cy="137.85602"
       fx="162.20889"
       fy="137.85602"
       r="11.087398"
       gradientUnits="userSpaceOnUse" /><filter
       inkscape:collect="always"
       style="color-interpolation-filters:sRGB"
       id="filter244"
       x="-0.034846823"
       y="-0.034846823"
       width="1.0696936"
       height="1.0696936"><feGaussianBlur
         inkscape:collect="always"
         stdDeviation="0.32196714"
         id="feGaussianBlur244" /></filter><radialGradient
       inkscape:collect="always"
       xlink:href="#linearGradient215"
       id="radialGradient18"
       gradientUnits="userSpaceOnUse"
       cx="139.43648"
       cy="126.4995"
       fx="139.43648"
       fy="126.4995"
       r="9.2608891" /><radialGradient
       inkscape:collect="always"
       xlink:href="#linearGradient214"
       id="radialGradient19"
       gradientUnits="userSpaceOnUse"
       cx="173.26022"
       cy="115.79845"
       fx="173.26022"
       fy="115.79845"
       r="9.2608891" /><radialGradient
       inkscape:collect="always"
       xlink:href="#linearGradient238"
       id="radialGradient20"
       gradientUnits="userSpaceOnUse"
       cx="182.80426"
       cy="149.26842"
       fx="182.80426"
       fy="149.26842"
       r="9.2608891" /><radialGradient
       inkscape:collect="always"
       xlink:href="#linearGradient233"
       id="radialGradient21"
       gradientUnits="userSpaceOnUse"
       cx="148.12242"
       cy="157.64732"
       fx="148.12242"
       fy="157.64732"
       r="9.2608891" /><radialGradient
       inkscape:collect="always"
       xlink:href="#linearGradient243"
       id="radialGradient22"
       gradientUnits="userSpaceOnUse"
       cx="162.20889"
       cy="137.85602"
       fx="162.20889"
       fy="137.85602"
       r="11.087398" /><linearGradient
       inkscape:collect="always"
       xlink:href="#linearGradient226"
       id="linearGradient76"
       gradientUnits="userSpaceOnUse"
       x1="146.5685"
       y1="122.84197"
       x2="160.29558"
       y2="118.70585" /><linearGradient
       inkscape:collect="always"
       xlink:href="#linearGradient238"
       id="linearGradient77"
       gradientUnits="userSpaceOnUse"
       x1="173.31024"
       y1="136.85834"
       x2="183.22569"
       y2="136.85834" /><linearGradient
       inkscape:collect="always"
       xlink:href="#linearGradient234"
       id="linearGradient78"
       gradientUnits="userSpaceOnUse"
       x1="154.51037"
       y1="162.09588"
       x2="168.68359"
       y2="162.09588" /><linearGradient
       inkscape:collect="always"
       xlink:href="#swatch223"
       id="linearGradient79"
       gradientUnits="userSpaceOnUse"
       x1="136.15422"
       y1="137.5137"
       x2="138.97505"
       y2="153.13907" /><filter
       inkscape:collect="always"
       style="color-interpolation-filters:sRGB"
       id="filter80"
       x="-0.021184217"
       y="-0.042171673"
       width="1.0423684"
       height="1.0843433"><feGaussianBlur
         inkscape:collect="always"
         stdDeviation="0.75083518"
         id="feGaussianBlur80" /></filter></defs><g
     inkscape:label="Main logo"
     inkscape:groupmode="layer"
     id="layer1"
     style="display:inline"><g
       inkscape:label="Main logo"
       id="layer1-1"
       style="display:inline"
       transform="translate(-12.217962,20.190453)" /><g
       id="g15"
       transform="matrix(0.86599585,0,0,0.86599585,85.025243,59.243519)"
       style="display:none"><g
         id="g9"
         transform="translate(0,-1.6969695)"
         style="display:inline"><path
           style="opacity:0.996283;fill:url(#linearGradient228);fill-opacity:0.768627;stroke:none;stroke-width:0.450001;stroke-opacity:0.995781;filter:url(#filter243)"
           d="m 160.42853,115.38693 c -1.79384,2.36336 -1.61048,6.30939 -0.42095,8.88671 -4.03558,-0.0131 -8.42205,-0.64056 -12.30107,0.46773 0.52882,-1.54769 -0.0267,-2.75165 -1.12254,-3.64823 2.0719,-1.39796 4.2692,-2.99418 6.47284,-3.94792 3.55896,-1.54033 6.83355,-2.00668 7.37172,-1.75829 z"
           id="path1"
           sodipodi:nodetypes="ccccsc"
           transform="matrix(0.73529738,0,0,0.77026989,-51.212016,68.480109)" /><path
           style="fill:url(#linearGradient240);fill-opacity:1;stroke:none;stroke-width:0.450001;filter:url(#filter240)"
           d="m 183.17997,143.6574 c -2.43513,-1.69514 -6.37028,-1.34964 -8.8965,-0.0551 -0.15288,-4.0327 0.29365,-8.44126 -0.97323,-12.27143 1.56813,0.46472 2.74823,-0.13983 3.59898,-1.27162 1.48198,2.01266 3.16722,4.14245 4.21078,6.305 1.68539,3.4926 2.28602,6.74525 2.05997,7.29318 z"
           id="path2"
           sodipodi:nodetypes="ccccsc"
           transform="matrix(0.73529738,0,0,0.77026989,-51.212016,68.480109)" /><path
           style="opacity:0.995575;fill:url(#linearGradient236);fill-opacity:1;stroke:none;stroke-width:0.450001;filter:url(#filter242)"
           d="m 154.51037,166.46656 c 1.93762,-2.24699 2.00051,-6.19677 0.97389,-8.84321 4.02692,0.26455 8.36577,1.16413 12.30631,0.29971 -0.62423,1.51172 -0.14482,2.74797 0.89302,3.71109 -2.15498,1.26614 -4.44748,2.72233 -6.70627,3.53689 -3.64803,1.31557 -6.94532,1.57697 -7.46695,1.29552 z"
           id="path3"
           sodipodi:nodetypes="ccccsc"
           transform="matrix(0.73529738,0,0,0.77026989,-51.212016,68.480109)" /><path
           style="mix-blend-mode:multiply;fill:url(#linearGradient225);fill-opacity:1;stroke:none;stroke-width:0.450001;filter:url(#filter241)"
           d="m 131.64761,138.38167 c 2.34905,1.81255 6.29641,1.66053 8.88309,0.4915 -0.0451,4.03535 -0.7074,8.4167 0.37005,12.30439 -1.54344,-0.54108 -2.75178,0.005 -3.65703,1.09354 -1.38146,-2.08293 -2.96018,-4.29283 -3.8964,-6.50398 -1.51203,-3.57108 -1.95236,-6.84926 -1.69971,-7.38545 z"
           id="path4"
           sodipodi:nodetypes="ccccsc"
           transform="matrix(0.73529738,0,0,0.77026989,-51.212016,68.480109)" /><path
           style="fill:url(#radialGradient18);fill-opacity:1;stroke:none;stroke-width:0.450001;filter:url(#filter217)"
           id="path5"
           sodipodi:type="arc"
           sodipodi:cx="136.66827"
           sodipodi:cy="129.37181"
           sodipodi:rx="9.2608891"
           sodipodi:ry="9.2608891"
           sodipodi:start="0"
           sodipodi:end="6.2628855"
           sodipodi:open="true"
           sodipodi:arc-type="arc"
           d="m 145.92916,129.37181 a 9.2608891,9.2608891 0 0 1 -9.21389,9.26077 9.2608891,9.2608891 0 0 1 -9.30741,-9.16677 9.2608891,9.2608891 0 0 1 9.11942,-9.35381 9.2608891,9.2608891 0 0 1 9.39997,9.07183"
           transform="matrix(0.73529738,0,0,0.77026989,-51.212016,68.480109)" /><path
           style="fill:url(#radialGradient19);fill-opacity:1;stroke:#0000ff;stroke-width:0.450001;filter:url(#filter215)"
           id="path6"
           sodipodi:type="arc"
           sodipodi:cx="169.4088"
           sodipodi:cy="120.04948"
           sodipodi:rx="9.2608891"
           sodipodi:ry="9.2608891"
           sodipodi:start="0"
           sodipodi:end="6.2628855"
           sodipodi:open="true"
           sodipodi:arc-type="arc"
           d="m 178.66969,120.04948 a 9.2608891,9.2608891 0 0 1 -9.21389,9.26077 9.2608891,9.2608891 0 0 1 -9.30741,-9.16678 9.2608891,9.2608891 0 0 1 9.11942,-9.35381 9.2608891,9.2608891 0 0 1 9.39997,9.07184"
           inkscape:transform-center-x="-5.2384827"
           inkscape:transform-center-y="-5.6126601"
           transform="matrix(0.73529738,0,0,0.77026989,-51.212016,68.480109)" /><path
           style="fill:url(#radialGradient20);fill-opacity:1;stroke:none;stroke-width:0.450001;filter:url(#filter238)"
           id="path7"
           sodipodi:type="arc"
           sodipodi:cx="179.0732"
           sodipodi:cy="152.94498"
           sodipodi:rx="9.2608891"
           sodipodi:ry="9.2608891"
           sodipodi:start="0"
           sodipodi:end="6.2628855"
           sodipodi:open="true"
           sodipodi:arc-type="arc"
           d="m 188.33409,152.94498 a 9.2608891,9.2608891 0 0 1 -9.2139,9.26077 9.2608891,9.2608891 0 0 1 -9.30741,-9.16678 9.2608891,9.2608891 0 0 1 9.11943,-9.35381 9.2608891,9.2608891 0 0 1 9.39997,9.07184"
           transform="matrix(0.73529738,0,0,0.77026989,-51.212016,68.480109)" /><path
           style="opacity:0.995575;fill:url(#radialGradient21);fill-opacity:1;stroke:none;stroke-width:0.450001;filter:url(#filter234)"
           id="path8"
           sodipodi:type="arc"
           sodipodi:cx="145.83563"
           sodipodi:cy="161.20898"
           sodipodi:rx="9.2608891"
           sodipodi:ry="9.2608891"
           sodipodi:start="0"
           sodipodi:end="6.2628855"
           sodipodi:open="true"
           sodipodi:arc-type="arc"
           d="m 155.09652,161.20898 a 9.2608891,9.2608891 0 0 1 -9.21389,9.26077 9.2608891,9.2608891 0 0 1 -9.30741,-9.16677 9.2608891,9.2608891 0 0 1 9.11942,-9.35381 9.2608891,9.2608891 0 0 1 9.39997,9.07183"
           transform="matrix(0.73529738,0,0,0.77026989,-51.212016,68.480109)" /><path
           style="opacity:0.996269;fill:url(#radialGradient22);fill-opacity:1;stroke:none;stroke-width:0.538754;filter:url(#filter244)"
           id="path9"
           sodipodi:type="arc"
           sodipodi:cx="157.9964"
           sodipodi:cy="141.53258"
           sodipodi:rx="11.087398"
           sodipodi:ry="11.087398"
           sodipodi:start="0"
           sodipodi:end="6.2628855"
           sodipodi:open="true"
           sodipodi:arc-type="arc"
           d="m 169.0838,141.53258 a 11.087398,11.087398 0 0 1 -11.03113,11.08725 11.087398,11.087398 0 0 1 -11.1431,-10.97472 11.087398,11.087398 0 0 1 10.91803,-11.19865 11.087398,11.087398 0 0 1 11.25391,10.86106"
           transform="matrix(0.73529738,0,0,0.77026989,-51.212016,68.480109)" /></g><g
         id="g14"
         transform="translate(44.979167,57.150032)"
         style="display:none"><g
           id="g11"
           style="font-size:24.0637px;line-height:0.8;font-family:'AR CENA';-inkscape-font-specification:'AR CENA, Normal';text-align:end;letter-spacing:0.322281px;word-spacing:0.0644562px;text-anchor:end;opacity:0.996269;fill:#800080;stroke:none;stroke-width:0.548132;stroke-opacity:0.995781"
           aria-label="Manola&#10;Media"
           transform="matrix(1.1224116,0,0,1.1224116,-45.557583,-28.790447)"><path
             style="stroke:none;stroke-width:0.548131"
             d="m 88.411147,112.93123 q 0.601592,0 0.986611,0.28877 0.38502,0.28876 0.601593,0.84223 -0.529401,2.55075 -0.745975,5.34214 -0.192509,2.79139 -0.192509,5.82341 0,0.45721 0.168446,1.80478 0.09625,0.77004 0.09625,1.08287 0,0.38502 -0.45721,0.64972 -0.45721,0.24063 -0.890357,0.24063 -0.91442,0 -1.275376,-0.77004 -0.264701,-0.55346 -0.264701,-1.66039 0,-0.2647 0,-0.5294 0,-0.2647 0.02406,-0.5294 0,-1.15506 0.168446,-4.54804 0.09625,-1.94916 0.09625,-2.74326 -0.890357,1.15505 -1.612268,2.21386 -0.986612,1.41975 -1.395695,2.33417 -0.2647,0.79411 -0.529401,1.56415 -0.144382,0.0481 -0.336892,0.12031 -0.168446,0.0481 -0.264701,0.0481 -1.467885,0 -2.719198,-3.60955 -0.433146,-1.29944 -0.842229,-2.62295 -0.288764,2.88765 -0.288764,5.79935 0,0.67379 0.120318,1.54008 0.288764,2.09354 0.288764,2.55075 0,0.40909 -0.481274,0.64972 -0.481274,0.24064 -0.91442,0.24064 -0.938484,0 -1.323504,-1.37163 -0.2647,-0.96255 -0.2647,-2.76733 0,-0.5294 0,-0.98661 0,-0.45721 0.02406,-0.86629 v -1.41976 q 0,-2.35824 0.120319,-4.09083 0.144382,-1.73258 0.601592,-3.05609 0.553465,-1.61227 1.540077,-1.61227 1.130994,0 1.852905,1.01068 0.02406,0.0241 0.09625,0.28876 0.07219,0.2647 0.09625,0.36096 0.312828,1.27538 0.866293,2.74326 0.360955,0.93849 1.10693,2.67107 1.780714,-2.7192 2.719198,-3.97051 2.286052,-3.05609 3.224536,-3.05609 z m 5.52003,15.83392 q -1.179121,0 -1.973223,-0.6016 -0.914421,-0.69784 -0.914421,-1.82884 0,-1.92509 1.852905,-3.29672 1.516013,-1.131 3.633619,-1.49195 l 0.02406,-0.57753 q 0,-0.62566 -0.07219,-0.8663 -0.144382,-0.50533 -0.601592,-0.50533 -0.625656,0 -1.10693,0.62565 -1.082867,1.3957 -1.443822,1.3957 -0.385019,0 -0.721911,-0.2647 -0.312828,-0.28877 -0.312828,-0.69785 0,-1.0588 1.347567,-2.11761 1.347567,-1.0588 2.454497,-1.0588 1.684459,0 2.382307,1.54008 0.529401,1.15506 0.529401,3.32079 0,0.96255 -0.04813,1.70852 -0.04813,0.74598 -0.09625,1.75665 0,0.40908 0.120318,0.93849 0.144382,0.50533 0.288765,1.03473 0,0.45721 -0.529402,0.8663 -0.505337,0.38502 -1.010675,0.38502 -0.45721,0 -0.770039,-0.3369 -0.312828,-0.33689 -0.45721,-0.81816 -1.155057,0.89036 -2.574816,0.89036 z m -0.577529,-2.7192 q 0,0.57753 0.721911,0.57753 0.673784,0 1.467886,-0.43315 0.794102,-0.43315 0.962548,-1.03474 0.04813,-0.21657 0.04813,-0.48127 0,-0.2647 0,-0.40909 v -0.5294 q -1.010676,0 -2.021351,0.62566 -1.179122,0.72191 -1.179122,1.68446 z m 13.846082,-8.47042 q 1.15506,0 1.5882,2.1176 0.24064,1.17912 0.24064,3.05609 v 0.96255 q 0,2.16573 -0.21657,3.32079 -0.36096,1.94916 -1.32351,1.94916 -0.43314,0 -0.86629,-0.31283 -0.40908,-0.31283 -0.40908,-0.72191 0,-0.60159 0.21657,-1.90103 0.21657,-1.29944 0.21657,-1.97323 0,-1.01067 -0.0241,-1.34756 -0.0963,-1.20319 -0.36096,-1.20319 -1.15505,0.72191 -2.02135,2.91171 -0.84223,2.16573 -0.84223,3.75394 0,0.38502 -0.40908,0.64972 -0.38502,0.24063 -0.7941,0.24063 -0.62566,0 -0.86629,-0.5294 -0.21658,-0.5294 -0.21658,-1.25131 0,-1.17912 0.33689,-4.69242 0.16845,-1.75665 0.16845,-2.81545 0,-0.31283 -0.14438,-0.89036 -0.12032,-0.57753 -0.12032,-0.74598 0,-0.43314 0.48127,-0.64972 0.48128,-0.24063 0.93849,-0.24063 0.69785,0 1.01067,0.64972 0.24064,0.50534 0.24064,1.46788 0,0.45721 -0.0722,1.22725 -0.0722,0.77004 -0.0722,0.98661 0.7941,-1.63633 1.29944,-2.40637 1.08286,-1.61226 2.02135,-1.61226 z m 8.98521,-0.12032 q 1.54007,0 2.33418,1.49195 0.64972,1.20318 0.64972,2.88764 0,2.59888 -1.01068,4.62023 -1.27538,2.57482 -3.60956,2.57482 -1.78071,0 -2.69513,-1.27538 -0.81817,-1.15506 -0.81817,-3.00796 0,-1.78072 0.79411,-4.21115 1.01067,-3.05609 2.35824,-3.05609 0.48127,0 0.7941,0.38502 0.55347,-0.40908 1.20319,-0.40908 z m -2.91171,7.60413 q 0,1.01067 0.28876,1.44382 0.31283,0.43314 0.84223,0.43314 1.17912,0 1.90103,-2.16573 0.55347,-1.68446 0.55347,-3.17641 0,-0.77003 -0.16845,-1.25131 -0.2647,-0.74597 -0.89035,-0.74597 -0.64972,0 -1.05881,0.74597 -0.38501,0.74598 -0.67378,0.62566 -0.38502,1.10693 -0.60159,2.06948 -0.19251,0.96254 -0.19251,2.02135 z m 9.34619,3.94644 q -0.84223,0 -1.22725,-0.7941 -0.28876,-0.60159 -0.28876,-1.54008 0,-1.70852 0.14438,-3.68174 0.14438,-1.97323 0.28876,-4.11489 0.16845,-2.16574 0.16845,-3.53737 0,-0.12032 -0.0963,-0.50534 -0.0722,-0.38502 -0.0722,-0.55346 0,-0.38502 0.5294,-0.64972 0.5294,-0.2647 0.98662,-0.2647 0.5294,0 0.84222,0.28876 0.3369,0.2647 0.3369,0.7941 0,0.50534 -0.12032,1.32351 -0.0963,0.81816 -0.19251,1.54008 -0.40908,4.13895 -0.40908,8.10946 0,0.40908 0.0962,1.01068 0.21657,1.34756 0.21657,1.63633 0,0.40908 -0.38502,0.67378 -0.38501,0.2647 -0.81816,0.2647 z m 5.47192,-0.24063 q -1.17912,0 -1.97322,-0.6016 -0.91442,-0.69784 -0.91442,-1.82884 0,-1.92509 1.8529,-3.29672 1.51602,-1.131 3.63362,-1.49195 l 0.0241,-0.57753 q 0,-0.62566 -0.0722,-0.8663 -0.14438,-0.50533 -0.60159,-0.50533 -0.62566,0 -1.10693,0.62565 -1.08287,1.3957 -1.44382,1.3957 -0.38502,0 -0.72191,-0.2647 -0.31283,-0.28877 -0.31283,-0.69785 0,-1.0588 1.34757,-2.11761 1.34756,-1.0588 2.45449,-1.0588 1.68446,0 2.38231,1.54008 0.5294,1.15506 0.5294,3.32079 0,0.96255 -0.0481,1.70852 -0.0481,0.74598 -0.0962,1.75665 0,0.40908 0.12032,0.93849 0.14438,0.50533 0.28876,1.03473 0,0.45721 -0.5294,0.8663 -0.50534,0.38502 -1.01067,0.38502 -0.45721,0 -0.77004,-0.3369 -0.31283,-0.33689 -0.45721,-0.81816 -1.15506,0.89036 -2.57482,0.89036 z m -0.57753,-2.7192 q 0,0.57753 0.72191,0.57753 0.67379,0 1.46789,-0.43315 0.7941,-0.43315 0.96255,-1.03474 0.0481,-0.21657 0.0481,-0.48127 0,-0.2647 0,-0.40909 v -0.5294 q -1.01067,0 -2.02135,0.62566 -1.17912,0.72191 -1.17912,1.68446 z"
             id="path10" /><path
             style="stroke:none;stroke-width:0.548131"
             d="m 96.996774,132.18219 q 0.601592,0 0.986611,0.28877 0.38502,0.28876 0.601593,0.84223 -0.529401,2.55075 -0.745975,5.34214 -0.192509,2.79139 -0.192509,5.82341 0,0.45721 0.168446,1.80478 0.09625,0.77004 0.09625,1.08287 0,0.38502 -0.45721,0.64972 -0.45721,0.24063 -0.890357,0.24063 -0.91442,0 -1.275376,-0.77004 -0.264701,-0.55346 -0.264701,-1.66039 0,-0.2647 0,-0.5294 0,-0.2647 0.02406,-0.5294 0,-1.15506 0.168446,-4.54804 0.09625,-1.94916 0.09625,-2.74326 -0.890357,1.15505 -1.612268,2.21386 -0.986612,1.41975 -1.395695,2.33417 -0.2647,0.79411 -0.529401,1.56415 -0.144382,0.0481 -0.336892,0.12031 -0.168446,0.0481 -0.264701,0.0481 -1.467885,0 -2.719198,-3.60955 -0.433146,-1.29944 -0.842229,-2.62295 -0.288765,2.88765 -0.288765,5.79935 0,0.67379 0.120319,1.54008 0.288764,2.09354 0.288764,2.55075 0,0.40909 -0.481274,0.64972 -0.481274,0.24064 -0.91442,0.24064 -0.938484,0 -1.323504,-1.37163 -0.2647,-0.96255 -0.2647,-2.76733 0,-0.5294 0,-0.98661 0,-0.45721 0.02406,-0.86629 v -1.41976 q 0,-2.35824 0.120319,-4.09083 0.144382,-1.73258 0.601592,-3.05609 0.553465,-1.61227 1.540077,-1.61227 1.130994,0 1.852905,1.01068 0.02406,0.0241 0.09625,0.28876 0.07219,0.2647 0.09625,0.36096 0.312828,1.27538 0.866293,2.74326 0.360955,0.93849 1.10693,2.67107 1.780714,-2.7192 2.719198,-3.97051 2.286051,-3.05609 3.224536,-3.05609 z m 6.747276,13.95695 q 1.37163,0 2.23793,-0.96255 0.7941,-1.0588 1.5882,-2.11761 0.5294,0 0.91442,0.36096 0.38502,0.36095 0.38502,0.89036 0,1.49195 -1.75665,2.76732 -1.63633,1.17912 -3.20047,1.17912 -1.70852,0 -2.83952,-1.01067 -1.130992,-1.03474 -1.130992,-2.74326 0,-2.23793 1.588202,-4.81274 1.75665,-2.86358 3.82613,-2.86358 1.03474,0 1.6604,0.77003 0.64972,0.74598 0.64972,1.80478 0,1.94916 -1.75665,3.56143 -1.54008,1.41976 -3.63362,1.9251 0.2647,1.25131 1.46788,1.25131 z m 1.87697,-6.93035 q 0,-0.36095 -0.28876,-0.36095 -0.72191,0 -1.63633,1.49195 -0.69785,1.15505 -1.03474,2.21386 0.93848,-0.50534 1.8529,-1.41976 1.10693,-1.10693 1.10693,-1.9251 z m 11.15093,-5.24588 q 0,-0.43315 0.31283,-0.62566 0.33689,-0.19251 0.81816,-0.19251 0.57753,0 0.96255,0.33689 0.40908,0.31283 0.40908,0.89036 0,1.27537 -0.24063,3.10422 -0.55347,4.21114 -0.55347,5.31807 0,0.72191 0.33689,2.7192 0.16845,1.01068 0.16845,1.56414 0,0.33689 -0.43315,0.62566 -0.40908,0.2647 -0.77003,0.2647 -0.6016,0 -0.91443,-0.45721 -0.31282,-0.45721 -0.45721,-1.75665 -0.50533,1.0588 -1.25131,1.70852 -0.91442,0.7941 -1.94916,0.7941 -1.46788,0 -2.28605,-1.3235 -0.69785,-1.13099 -0.69785,-2.69513 0,-2.23793 1.10693,-4.66836 1.34757,-2.95984 3.29673,-2.95984 0.5294,0 0.96255,0.24064 0.45721,0.24064 0.86629,0.69785 0.12032,-0.74598 0.21658,-1.75665 0.0962,-1.03474 0.0962,-1.82884 z m -1.87697,4.95712 q -0.93848,0 -1.68446,2.40637 -0.62565,2.02135 -0.62565,3.34485 0,0.55347 0.12031,1.03474 0.14439,0.48127 0.57753,0.48127 0.98662,0 1.82884,-2.23792 0.69785,-1.87697 0.69785,-3.12828 0,-0.74597 -0.12032,-1.15506 -0.21657,-0.74597 -0.7941,-0.74597 z m 7.56544,9.31265 q -0.84223,0 -1.22725,-0.74598 -0.28876,-0.55346 -0.28876,-1.51601 0,-1.22725 0.19251,-3.70581 0.1925,-2.47856 0.1925,-3.75394 0,-0.14438 -0.0722,-0.45721 -0.0722,-0.31282 -0.0722,-0.45721 0,-0.43314 0.48128,-0.64972 0.50533,-0.21657 1.01067,-0.21657 0.55347,0 0.8663,0.24064 0.33689,0.24063 0.33689,0.77004 0,1.03474 -0.2647,3.56142 -0.2647,2.52669 -0.2647,3.82613 0,0.36096 0.0722,0.84223 0.16844,1.131 0.16844,1.37163 0,0.38502 -0.36095,0.64972 -0.36096,0.24064 -0.77004,0.24064 z m 0.21657,-15.23232 q 0.62566,0 1.17912,0.33689 0.55347,0.33689 0.55347,0.93848 0,0.52941 -0.40908,0.81817 -0.38502,0.28876 -0.93849,0.28876 -0.67378,0 -1.22725,-0.36095 -0.55346,-0.36096 -0.55346,-0.98661 0,-0.48128 0.45721,-0.74598 0.45721,-0.28876 0.93848,-0.28876 z m 5.73663,15.01575 q -1.17912,0 -1.97322,-0.6016 -0.91442,-0.69784 -0.91442,-1.82884 0,-1.92509 1.85291,-3.29672 1.51601,-1.131 3.63361,-1.49195 l 0.0241,-0.57753 q 0,-0.62566 -0.0722,-0.8663 -0.14439,-0.50533 -0.6016,-0.50533 -0.62565,0 -1.10693,0.62565 -1.08286,1.3957 -1.44382,1.3957 -0.38502,0 -0.72191,-0.2647 -0.31283,-0.28877 -0.31283,-0.69785 0,-1.0588 1.34757,-2.11761 1.34757,-1.0588 2.4545,-1.0588 1.68446,0 2.3823,1.54008 0.5294,1.15506 0.5294,3.32079 0,0.96255 -0.0481,1.70852 -0.0481,0.74598 -0.0963,1.75665 0,0.40908 0.12032,0.93849 0.14438,0.50533 0.28877,1.03473 0,0.45721 -0.52941,0.8663 -0.50533,0.38502 -1.01067,0.38502 -0.45721,0 -0.77004,-0.33689 -0.31283,-0.3369 -0.45721,-0.81817 -1.15506,0.89036 -2.57482,0.89036 z m -0.57752,-2.7192 q 0,0.57753 0.72191,0.57753 0.67378,0 1.46788,-0.43315 0.7941,-0.43315 0.96255,-1.03474 0.0481,-0.21657 0.0481,-0.48127 0,-0.2647 0,-0.40909 v -0.5294 q -1.01068,0 -2.02135,0.62566 -1.17912,0.72191 -1.17912,1.68446 z"
             id="path11" /></g><g
           id="g13"
           style="font-size:24.0637px;line-height:0.8;font-family:'AR CENA';-inkscape-font-specification:'AR CENA, Normal';text-align:end;letter-spacing:0.322281px;word-spacing:0.0644562px;text-anchor:end;opacity:0.996269;fill:#800080;stroke:#ac64de;stroke-width:0.548132;stroke-opacity:0.995781"
           aria-label="Manola&#10;Media"
           transform="matrix(1.1224116,0,0,1.1224116,-47.364002,-28.790447)"><path
             style="stroke:#ac64de;stroke-width:0.548131;stroke-opacity:0.995781"
             d="m 88.411147,112.93123 q 0.601592,0 0.986611,0.28877 0.38502,0.28876 0.601593,0.84223 -0.529401,2.55075 -0.745975,5.34214 -0.192509,2.79139 -0.192509,5.82341 0,0.45721 0.168446,1.80478 0.09625,0.77004 0.09625,1.08287 0,0.38502 -0.45721,0.64972 -0.45721,0.24063 -0.890357,0.24063 -0.91442,0 -1.275376,-0.77004 -0.264701,-0.55346 -0.264701,-1.66039 0,-0.2647 0,-0.5294 0,-0.2647 0.02406,-0.5294 0,-1.15506 0.168446,-4.54804 0.09625,-1.94916 0.09625,-2.74326 -0.890357,1.15505 -1.612268,2.21386 -0.986612,1.41975 -1.395695,2.33417 -0.2647,0.79411 -0.529401,1.56415 -0.144382,0.0481 -0.336892,0.12031 -0.168446,0.0481 -0.264701,0.0481 -1.467885,0 -2.719198,-3.60955 -0.433146,-1.29944 -0.842229,-2.62295 -0.288764,2.88765 -0.288764,5.79935 0,0.67379 0.120318,1.54008 0.288764,2.09354 0.288764,2.55075 0,0.40909 -0.481274,0.64972 -0.481274,0.24064 -0.91442,0.24064 -0.938484,0 -1.323504,-1.37163 -0.2647,-0.96255 -0.2647,-2.76733 0,-0.5294 0,-0.98661 0,-0.45721 0.02406,-0.86629 v -1.41976 q 0,-2.35824 0.120319,-4.09083 0.144382,-1.73258 0.601592,-3.05609 0.553465,-1.61227 1.540077,-1.61227 1.130994,0 1.852905,1.01068 0.02406,0.0241 0.09625,0.28876 0.07219,0.2647 0.09625,0.36096 0.312828,1.27538 0.866293,2.74326 0.360955,0.93849 1.10693,2.67107 1.780714,-2.7192 2.719198,-3.97051 2.286052,-3.05609 3.224536,-3.05609 z m 5.52003,15.83392 q -1.179121,0 -1.973223,-0.6016 -0.914421,-0.69784 -0.914421,-1.82884 0,-1.92509 1.852905,-3.29672 1.516013,-1.131 3.633619,-1.49195 l 0.02406,-0.57753 q 0,-0.62566 -0.07219,-0.8663 -0.144382,-0.50533 -0.601592,-0.50533 -0.625656,0 -1.10693,0.62565 -1.082867,1.3957 -1.443822,1.3957 -0.385019,0 -0.721911,-0.2647 -0.312828,-0.28877 -0.312828,-0.69785 0,-1.0588 1.347567,-2.11761 1.347567,-1.0588 2.454497,-1.0588 1.684459,0 2.382307,1.54008 0.529401,1.15506 0.529401,3.32079 0,0.96255 -0.04813,1.70852 -0.04813,0.74598 -0.09625,1.75665 0,0.40908 0.120318,0.93849 0.144382,0.50533 0.288765,1.03473 0,0.45721 -0.529402,0.8663 -0.505337,0.38502 -1.010675,0.38502 -0.45721,0 -0.770039,-0.3369 -0.312828,-0.33689 -0.45721,-0.81816 -1.155057,0.89036 -2.574816,0.89036 z m -0.577529,-2.7192 q 0,0.57753 0.721911,0.57753 0.673784,0 1.467886,-0.43315 0.794102,-0.43315 0.962548,-1.03474 0.04813,-0.21657 0.04813,-0.48127 0,-0.2647 0,-0.40909 v -0.5294 q -1.010676,0 -2.021351,0.62566 -1.179122,0.72191 -1.179122,1.68446 z m 13.846082,-8.47042 q 1.15506,0 1.5882,2.1176 0.24064,1.17912 0.24064,3.05609 v 0.96255 q 0,2.16573 -0.21657,3.32079 -0.36096,1.94916 -1.32351,1.94916 -0.43314,0 -0.86629,-0.31283 -0.40908,-0.31283 -0.40908,-0.72191 0,-0.60159 0.21657,-1.90103 0.21657,-1.29944 0.21657,-1.97323 0,-1.01067 -0.0241,-1.34756 -0.0963,-1.20319 -0.36096,-1.20319 -1.15505,0.72191 -2.02135,2.91171 -0.84223,2.16573 -0.84223,3.75394 0,0.38502 -0.40908,0.64972 -0.38502,0.24063 -0.7941,0.24063 -0.62566,0 -0.86629,-0.5294 -0.21658,-0.5294 -0.21658,-1.25131 0,-1.17912 0.33689,-4.69242 0.16845,-1.75665 0.16845,-2.81545 0,-0.31283 -0.14438,-0.89036 -0.12032,-0.57753 -0.12032,-0.74598 0,-0.43314 0.48127,-0.64972 0.48128,-0.24063 0.93849,-0.24063 0.69785,0 1.01067,0.64972 0.24064,0.50534 0.24064,1.46788 0,0.45721 -0.0722,1.22725 -0.0722,0.77004 -0.0722,0.98661 0.7941,-1.63633 1.29944,-2.40637 1.08286,-1.61226 2.02135,-1.61226 z m 8.98521,-0.12032 q 1.54007,0 2.33418,1.49195 0.64972,1.20318 0.64972,2.88764 0,2.59888 -1.01068,4.62023 -1.27538,2.57482 -3.60956,2.57482 -1.78071,0 -2.69513,-1.27538 -0.81817,-1.15506 -0.81817,-3.00796 0,-1.78072 0.79411,-4.21115 1.01067,-3.05609 2.35824,-3.05609 0.48127,0 0.7941,0.38502 0.55347,-0.40908 1.20319,-0.40908 z m -2.91171,7.60413 q 0,1.01067 0.28876,1.44382 0.31283,0.43314 0.84223,0.43314 1.17912,0 1.90103,-2.16573 0.55347,-1.68446 0.55347,-3.17641 0,-0.77003 -0.16845,-1.25131 -0.2647,-0.74597 -0.89035,-0.74597 -0.64972,0 -1.05881,0.74597 -0.38501,0.74598 -0.67378,0.62566 -0.38502,1.10693 -0.60159,2.06948 -0.19251,0.96254 -0.19251,2.02135 z m 9.34619,3.94644 q -0.84223,0 -1.22725,-0.7941 -0.28876,-0.60159 -0.28876,-1.54008 0,-1.70852 0.14438,-3.68174 0.14438,-1.97323 0.28876,-4.11489 0.16845,-2.16574 0.16845,-3.53737 0,-0.12032 -0.0963,-0.50534 -0.0722,-0.38502 -0.0722,-0.55346 0,-0.38502 0.5294,-0.64972 0.5294,-0.2647 0.98662,-0.2647 0.5294,0 0.84222,0.28876 0.3369,0.2647 0.3369,0.7941 0,0.50534 -0.12032,1.32351 -0.0963,0.81816 -0.19251,1.54008 -0.40908,4.13895 -0.40908,8.10946 0,0.40908 0.0962,1.01068 0.21657,1.34756 0.21657,1.63633 0,0.40908 -0.38502,0.67378 -0.38501,0.2647 -0.81816,0.2647 z m 5.47192,-0.24063 q -1.17912,0 -1.97322,-0.6016 -0.91442,-0.69784 -0.91442,-1.82884 0,-1.92509 1.8529,-3.29672 1.51602,-1.131 3.63362,-1.49195 l 0.0241,-0.57753 q 0,-0.62566 -0.0722,-0.8663 -0.14438,-0.50533 -0.60159,-0.50533 -0.62566,0 -1.10693,0.62565 -1.08287,1.3957 -1.44382,1.3957 -0.38502,0 -0.72191,-0.2647 -0.31283,-0.28877 -0.31283,-0.69785 0,-1.0588 1.34757,-2.11761 1.34756,-1.0588 2.45449,-1.0588 1.68446,0 2.38231,1.54008 0.5294,1.15506 0.5294,3.32079 0,0.96255 -0.0481,1.70852 -0.0481,0.74598 -0.0962,1.75665 0,0.40908 0.12032,0.93849 0.14438,0.50533 0.28876,1.03473 0,0.45721 -0.5294,0.8663 -0.50534,0.38502 -1.01067,0.38502 -0.45721,0 -0.77004,-0.3369 -0.31283,-0.33689 -0.45721,-0.81816 -1.15506,0.89036 -2.57482,0.89036 z m -0.57753,-2.7192 q 0,0.57753 0.72191,0.57753 0.67379,0 1.46789,-0.43315 0.7941,-0.43315 0.96255,-1.03474 0.0481,-0.21657 0.0481,-0.48127 0,-0.2647 0,-0.40909 v -0.5294 q -1.01067,0 -2.02135,0.62566 -1.17912,0.72191 -1.17912,1.68446 z"
             id="path12" /><path
             style="stroke:#ac64de;stroke-width:0.548131;stroke-opacity:0.995781"
             d="m 96.996774,132.18219 q 0.601592,0 0.986611,0.28877 0.38502,0.28876 0.601593,0.84223 -0.529401,2.55075 -0.745975,5.34214 -0.192509,2.79139 -0.192509,5.82341 0,0.45721 0.168446,1.80478 0.09625,0.77004 0.09625,1.08287 0,0.38502 -0.45721,0.64972 -0.45721,0.24063 -0.890357,0.24063 -0.91442,0 -1.275376,-0.77004 -0.264701,-0.55346 -0.264701,-1.66039 0,-0.2647 0,-0.5294 0,-0.2647 0.02406,-0.5294 0,-1.15506 0.168446,-4.54804 0.09625,-1.94916 0.09625,-2.74326 -0.890357,1.15505 -1.612268,2.21386 -0.986612,1.41975 -1.395695,2.33417 -0.2647,0.79411 -0.529401,1.56415 -0.144382,0.0481 -0.336892,0.12031 -0.168446,0.0481 -0.264701,0.0481 -1.467885,0 -2.719198,-3.60955 -0.433146,-1.29944 -0.842229,-2.62295 -0.288765,2.88765 -0.288765,5.79935 0,0.67379 0.120319,1.54008 0.288764,2.09354 0.288764,2.55075 0,0.40909 -0.481274,0.64972 -0.481274,0.24064 -0.91442,0.24064 -0.938484,0 -1.323504,-1.37163 -0.2647,-0.96255 -0.2647,-2.76733 0,-0.5294 0,-0.98661 0,-0.45721 0.02406,-0.86629 v -1.41976 q 0,-2.35824 0.120319,-4.09083 0.144382,-1.73258 0.601592,-3.05609 0.553465,-1.61227 1.540077,-1.61227 1.130994,0 1.852905,1.01068 0.02406,0.0241 0.09625,0.28876 0.07219,0.2647 0.09625,0.36096 0.312828,1.27538 0.866293,2.74326 0.360955,0.93849 1.10693,2.67107 1.780714,-2.7192 2.719198,-3.97051 2.286051,-3.05609 3.224536,-3.05609 z m 6.747276,13.95695 q 1.37163,0 2.23793,-0.96255 0.7941,-1.0588 1.5882,-2.11761 0.5294,0 0.91442,0.36096 0.38502,0.36095 0.38502,0.89036 0,1.49195 -1.75665,2.76732 -1.63633,1.17912 -3.20047,1.17912 -1.70852,0 -2.83952,-1.01067 -1.130992,-1.03474 -1.130992,-2.74326 0,-2.23793 1.588202,-4.81274 1.75665,-2.86358 3.82613,-2.86358 1.03474,0 1.6604,0.77003 0.64972,0.74598 0.64972,1.80478 0,1.94916 -1.75665,3.56143 -1.54008,1.41976 -3.63362,1.9251 0.2647,1.25131 1.46788,1.25131 z m 1.87697,-6.93035 q 0,-0.36095 -0.28876,-0.36095 -0.72191,0 -1.63633,1.49195 -0.69785,1.15505 -1.03474,2.21386 0.93848,-0.50534 1.8529,-1.41976 1.10693,-1.10693 1.10693,-1.9251 z m 11.15093,-5.24588 q 0,-0.43315 0.31283,-0.62566 0.33689,-0.19251 0.81816,-0.19251 0.57753,0 0.96255,0.33689 0.40908,0.31283 0.40908,0.89036 0,1.27537 -0.24063,3.10422 -0.55347,4.21114 -0.55347,5.31807 0,0.72191 0.33689,2.7192 0.16845,1.01068 0.16845,1.56414 0,0.33689 -0.43315,0.62566 -0.40908,0.2647 -0.77003,0.2647 -0.6016,0 -0.91443,-0.45721 -0.31282,-0.45721 -0.45721,-1.75665 -0.50533,1.0588 -1.25131,1.70852 -0.91442,0.7941 -1.94916,0.7941 -1.46788,0 -2.28605,-1.3235 -0.69785,-1.13099 -0.69785,-2.69513 0,-2.23793 1.10693,-4.66836 1.34757,-2.95984 3.29673,-2.95984 0.5294,0 0.96255,0.24064 0.45721,0.24064 0.86629,0.69785 0.12032,-0.74598 0.21658,-1.75665 0.0962,-1.03474 0.0962,-1.82884 z m -1.87697,4.95712 q -0.93848,0 -1.68446,2.40637 -0.62565,2.02135 -0.62565,3.34485 0,0.55347 0.12031,1.03474 0.14439,0.48127 0.57753,0.48127 0.98662,0 1.82884,-2.23792 0.69785,-1.87697 0.69785,-3.12828 0,-0.74597 -0.12032,-1.15506 -0.21657,-0.74597 -0.7941,-0.74597 z m 7.56544,9.31265 q -0.84223,0 -1.22725,-0.74598 -0.28876,-0.55346 -0.28876,-1.51601 0,-1.22725 0.19251,-3.70581 0.1925,-2.47856 0.1925,-3.75394 0,-0.14438 -0.0722,-0.45721 -0.0722,-0.31282 -0.0722,-0.45721 0,-0.43314 0.48128,-0.64972 0.50533,-0.21657 1.01067,-0.21657 0.55347,0 0.8663,0.24064 0.33689,0.24063 0.33689,0.77004 0,1.03474 -0.2647,3.56142 -0.2647,2.52669 -0.2647,3.82613 0,0.36096 0.0722,0.84223 0.16844,1.131 0.16844,1.37163 0,0.38502 -0.36095,0.64972 -0.36096,0.24064 -0.77004,0.24064 z m 0.21657,-15.23232 q 0.62566,0 1.17912,0.33689 0.55347,0.33689 0.55347,0.93848 0,0.52941 -0.40908,0.81817 -0.38502,0.28876 -0.93849,0.28876 -0.67378,0 -1.22725,-0.36095 -0.55346,-0.36096 -0.55346,-0.98661 0,-0.48128 0.45721,-0.74598 0.45721,-0.28876 0.93848,-0.28876 z m 5.73663,15.01575 q -1.17912,0 -1.97322,-0.6016 -0.91442,-0.69784 -0.91442,-1.82884 0,-1.92509 1.85291,-3.29672 1.51601,-1.131 3.63361,-1.49195 l 0.0241,-0.57753 q 0,-0.62566 -0.0722,-0.8663 -0.14439,-0.50533 -0.6016,-0.50533 -0.62565,0 -1.10693,0.62565 -1.08286,1.3957 -1.44382,1.3957 -0.38502,0 -0.72191,-0.2647 -0.31283,-0.28877 -0.31283,-0.69785 0,-1.0588 1.34757,-2.11761 1.34757,-1.0588 2.4545,-1.0588 1.68446,0 2.3823,1.54008 0.5294,1.15506 0.5294,3.32079 0,0.96255 -0.0481,1.70852 -0.0481,0.74598 -0.0963,1.75665 0,0.40908 0.12032,0.93849 0.14438,0.50533 0.28877,1.03473 0,0.45721 -0.52941,0.8663 -0.50533,0.38502 -1.01067,0.38502 -0.45721,0 -0.77004,-0.33689 -0.31283,-0.3369 -0.45721,-0.81817 -1.15506,0.89036 -2.57482,0.89036 z m -0.57752,-2.7192 q 0,0.57753 0.72191,0.57753 0.67378,0 1.46788,-0.43315 0.7941,-0.43315 0.96255,-1.03474 0.0481,-0.21657 0.0481,-0.48127 0,-0.2647 0,-0.40909 v -0.5294 q -1.01068,0 -2.02135,0.62566 -1.17912,0.72191 -1.17912,1.68446 z"
             id="path13" /></g></g></g></g><g
     inkscape:groupmode="layer"
     id="layer3"
     inkscape:label="background"
     style="display:inline" /><g
     inkscape:groupmode="layer"
     id="layer2"
     inkscape:label="Text"
     style="display:inline"><g
       id="g81"
       transform="matrix(0.35807916,0,0,0.35807916,17.186143,81.810868)"
       inkscape:export-filename="1logo.png"
       inkscape:export-xdpi="96"
       inkscape:export-ydpi="96"><rect
         style="opacity:0.867925;fill:#ffffff;fill-opacity:1;stroke:none;stroke-width:0.434999;stroke-dasharray:none;stroke-opacity:0.996078;filter:url(#filter80)"
         id="rect80"
         width="85.063538"
         height="42.730209"
         x="28.574999"
         y="129.24898"
         ry="18.798317" /><g
         id="g80"
         inkscape:export-filename="g80.png"
         inkscape:export-xdpi="96"
         inkscape:export-ydpi="96"
         transform="translate(26.9875,3.4395834)"><g
           id="g2"
           transform="matrix(0.86599585,0,0,0.86599585,-30.994548,-5.9906329)"
           style="display:inline"><path
             style="opacity:0.996283;fill:url(#linearGradient76);fill-opacity:0.768627;stroke:none;stroke-width:0.450001;stroke-opacity:0.995781;filter:url(#filter243)"
             d="m 160.42853,115.38693 c -1.79384,2.36336 -1.61048,6.30939 -0.42095,8.88671 -4.03558,-0.0131 -8.42205,-0.64056 -12.30107,0.46773 0.52882,-1.54769 -0.0267,-2.75165 -1.12254,-3.64823 2.0719,-1.39796 4.2692,-2.99418 6.47284,-3.94792 3.55896,-1.54033 6.83355,-2.00668 7.37172,-1.75829 z"
             id="path203"
             sodipodi:nodetypes="ccccsc"
             transform="matrix(0.73529738,0,0,0.77026989,-51.212016,68.480109)" /><path
             style="fill:url(#linearGradient77);fill-opacity:1;stroke:none;stroke-width:0.450001;filter:url(#filter240)"
             d="m 183.17997,143.6574 c -2.43513,-1.69514 -6.37028,-1.34964 -8.8965,-0.0551 -0.15288,-4.0327 0.29365,-8.44126 -0.97323,-12.27143 1.56813,0.46472 2.74823,-0.13983 3.59898,-1.27162 1.48198,2.01266 3.16722,4.14245 4.21078,6.305 1.68539,3.4926 2.28602,6.74525 2.05997,7.29318 z"
             id="path204"
             sodipodi:nodetypes="ccccsc"
             transform="matrix(0.73529738,0,0,0.77026989,-51.212016,68.480109)" /><path
             style="opacity:0.995575;fill:url(#linearGradient78);fill-opacity:1;stroke:none;stroke-width:0.450001;filter:url(#filter242)"
             d="m 154.51037,166.46656 c 1.93762,-2.24699 2.00051,-6.19677 0.97389,-8.84321 4.02692,0.26455 8.36577,1.16413 12.30631,0.29971 -0.62423,1.51172 -0.14482,2.74797 0.89302,3.71109 -2.15498,1.26614 -4.44748,2.72233 -6.70627,3.53689 -3.64803,1.31557 -6.94532,1.57697 -7.46695,1.29552 z"
             id="path205"
             sodipodi:nodetypes="ccccsc"
             transform="matrix(0.73529738,0,0,0.77026989,-51.212016,68.480109)" /><path
             style="mix-blend-mode:multiply;fill:url(#linearGradient79);fill-opacity:1;stroke:none;stroke-width:0.450001;filter:url(#filter241)"
             d="m 131.64761,138.38167 c 2.34905,1.81255 6.29641,1.66053 8.88309,0.4915 -0.0451,4.03535 -0.7074,8.4167 0.37005,12.30439 -1.54344,-0.54108 -2.75178,0.005 -3.65703,1.09354 -1.38146,-2.08293 -2.96018,-4.29283 -3.8964,-6.50398 -1.51203,-3.57108 -1.95236,-6.84926 -1.69971,-7.38545 z"
             id="path206"
             sodipodi:nodetypes="ccccsc"
             transform="matrix(0.73529738,0,0,0.77026989,-51.212016,68.480109)" /><path
             style="fill:url(#radialGradient217);fill-opacity:1;stroke:none;stroke-width:0.450001;filter:url(#filter217)"
             id="path207"
             sodipodi:type="arc"
             sodipodi:cx="136.66827"
             sodipodi:cy="129.37181"
             sodipodi:rx="9.2608891"
             sodipodi:ry="9.2608891"
             sodipodi:start="0"
             sodipodi:end="6.2628855"
             sodipodi:open="true"
             sodipodi:arc-type="arc"
             d="m 145.92916,129.37181 a 9.2608891,9.2608891 0 0 1 -9.21389,9.26077 9.2608891,9.2608891 0 0 1 -9.30741,-9.16677 9.2608891,9.2608891 0 0 1 9.11942,-9.35381 9.2608891,9.2608891 0 0 1 9.39997,9.07183"
             transform="matrix(0.73529738,0,0,0.77026989,-51.212016,68.480109)" /><path
             style="fill:url(#radialGradient215);fill-opacity:1;stroke:#0000ff;stroke-width:0.450001;filter:url(#filter215)"
             id="path208"
             sodipodi:type="arc"
             sodipodi:cx="169.4088"
             sodipodi:cy="120.04948"
             sodipodi:rx="9.2608891"
             sodipodi:ry="9.2608891"
             sodipodi:start="0"
             sodipodi:end="6.2628855"
             sodipodi:open="true"
             sodipodi:arc-type="arc"
             d="m 178.66969,120.04948 a 9.2608891,9.2608891 0 0 1 -9.21389,9.26077 9.2608891,9.2608891 0 0 1 -9.30741,-9.16678 9.2608891,9.2608891 0 0 1 9.11942,-9.35381 9.2608891,9.2608891 0 0 1 9.39997,9.07184"
             inkscape:transform-center-x="-5.2384827"
             inkscape:transform-center-y="-5.6126601"
             transform="matrix(0.73529738,0,0,0.77026989,-51.212016,68.480109)" /><path
             style="fill:url(#radialGradient238);fill-opacity:1;stroke:none;stroke-width:0.450001;filter:url(#filter238)"
             id="path209"
             sodipodi:type="arc"
             sodipodi:cx="179.0732"
             sodipodi:cy="152.94498"
             sodipodi:rx="9.2608891"
             sodipodi:ry="9.2608891"
             sodipodi:start="0"
             sodipodi:end="6.2628855"
             sodipodi:open="true"
             sodipodi:arc-type="arc"
             d="m 188.33409,152.94498 a 9.2608891,9.2608891 0 0 1 -9.2139,9.26077 9.2608891,9.2608891 0 0 1 -9.30741,-9.16678 9.2608891,9.2608891 0 0 1 9.11943,-9.35381 9.2608891,9.2608891 0 0 1 9.39997,9.07184"
             transform="matrix(0.73529738,0,0,0.77026989,-51.212016,68.480109)" /><path
             style="opacity:0.995575;fill:url(#radialGradient234);fill-opacity:1;stroke:none;stroke-width:0.450001;filter:url(#filter234)"
             id="path210"
             sodipodi:type="arc"
             sodipodi:cx="145.83563"
             sodipodi:cy="161.20898"
             sodipodi:rx="9.2608891"
             sodipodi:ry="9.2608891"
             sodipodi:start="0"
             sodipodi:end="6.2628855"
             sodipodi:open="true"
             sodipodi:arc-type="arc"
             d="m 155.09652,161.20898 a 9.2608891,9.2608891 0 0 1 -9.21389,9.26077 9.2608891,9.2608891 0 0 1 -9.30741,-9.16677 9.2608891,9.2608891 0 0 1 9.11942,-9.35381 9.2608891,9.2608891 0 0 1 9.39997,9.07183"
             transform="matrix(0.73529738,0,0,0.77026989,-51.212016,68.480109)" /><path
             style="opacity:0.996269;fill:url(#radialGradient244);fill-opacity:1;stroke:none;stroke-width:0.538754;filter:url(#filter244)"
             id="path211"
             sodipodi:type="arc"
             sodipodi:cx="157.9964"
             sodipodi:cy="141.53258"
             sodipodi:rx="11.087398"
             sodipodi:ry="11.087398"
             sodipodi:start="0"
             sodipodi:end="6.2628855"
             sodipodi:open="true"
             sodipodi:arc-type="arc"
             d="m 169.0838,141.53258 a 11.087398,11.087398 0 0 1 -11.03113,11.08725 11.087398,11.087398 0 0 1 -11.1431,-10.97472 11.087398,11.087398 0 0 1 10.91803,-11.19865 11.087398,11.087398 0 0 1 11.25391,10.86106"
             transform="matrix(0.73529738,0,0,0.77026989,-51.212016,68.480109)" /></g><path
           d="m 49.882779,157.59112 q -0.860778,0 -1.495777,-0.22578 -0.860777,-0.31044 -1.044222,-0.97367 l 0.09878,-0.254 0.239889,-0.0988 q 0.127,0.0423 0.733777,0.74788 0.493889,0.56445 1.481666,0.56445 0.931332,0 1.848554,-0.49389 0.761999,-0.40922 1.523999,-1.18533 -0.663222,-0.32456 -1.058333,-1.00189 -0.381,-0.69144 -0.381,-1.45344 0,-2.35656 2.271887,-3.90878 2.031999,-1.397 4.501441,-1.397 0.705555,0 1.086555,0.0706 0.677333,0.127 0.903111,0.508 0,0.16933 -0.183445,0.19755 -0.761999,-0.22577 -1.128888,-0.32455 -0.691444,-0.19756 -1.199443,-0.19756 -2.102554,0 -3.824108,1.55222 -1.777999,1.60867 -1.777999,3.69711 0,0.64911 0.239889,1.18533 0.239888,0.52212 0.761999,0.81845 0.169333,-0.21167 1.580443,-2.51178 1.157111,-1.87677 2.031999,-2.82222 1.255888,-1.35466 2.356553,-1.35466 0.08467,0 0.197556,0.0282 0.112889,0.0282 0.225777,0.0564 l 0.169334,0.254 -0.169334,0.18345 q -0.155222,-0.0423 -0.310444,-0.0847 -0.155222,-0.0423 -0.197555,-0.0423 -0.931333,0 -1.354666,2.13077 -0.268111,2.32834 -0.310444,2.667 l -0.112889,0.98778 -0.127,0.762 -0.01411,0.0847 0.04233,-0.0564 0.52211,-0.81844 q 0.959555,-1.49578 1.91911,-3.00567 1.269999,-1.84855 2.483554,-2.82222 1.552221,-1.25589 3.203219,-1.25589 0.381,0 0.606778,0.0564 0.225777,0.0564 0.338666,0.0847 l 0.352777,0.40922 -0.211666,0.23989 q -0.197555,-0.0423 -0.663222,-0.21167 -0.451555,-0.18345 -0.832555,-0.18345 -1.989665,0 -3.951108,2.39889 -1.523999,2.24367 -3.047997,4.48733 -1.650999,2.413 -2.82222,2.413 -0.310445,0 -0.465667,-0.28222 l 0.08467,-0.19756 q 0.09878,-0.0564 0.239889,-0.0564 0.04233,0 0.366888,0.0705 0.127,0.0282 0.254,0.0282 0.07056,0 0.183444,-0.0423 0.127,-0.0564 0.239889,-0.0988 0.451555,-0.36688 0.649111,-2.06022 0.296333,-2.53999 0.451555,-3.16088 0.451555,-1.86267 1.509888,-2.62467 -0.776111,0.18345 -1.79211,1.524 -0.606777,0.80433 -1.749777,2.68111 -1.072443,1.778 -1.552221,2.30011 0.296333,0.0423 0.592667,0.0847 0.691444,0 1.312332,-0.42334 l 0.112889,0.15523 q -0.324556,0.26811 -0.663222,0.381 -0.338666,0.0988 -0.761999,0.0988 -0.141111,0 -0.268111,0 -0.112889,-0.0141 -0.536222,-0.0705 -0.635,0.80433 -1.66511,1.29822 -1.015999,0.49389 -2.046109,0.49389 z m 12.925767,-1.53811 q -0.366888,0.55033 -0.90311,0.93133 -0.620889,0.43744 -1.213555,0.43744 -0.874888,0 -0.874888,-0.90311 0,-1.04422 0.959555,-3.00566 0.959555,-1.97555 2.173109,-3.37255 1.41111,-1.60867 2.483554,-1.60867 0.197555,0 0.395111,0.0847 l 0.155222,0.19755 -0.05644,0.14111 -0.141111,0.0565 q -0.09878,-0.0141 -0.324555,-0.0988 -0.211666,-0.0847 -0.324555,-0.0847 -0.747888,0 -1.904999,1.55223 -1.001888,1.34055 -1.862665,3.17499 -0.846666,1.83445 -0.846666,2.63878 0,0.67733 0.635,0.67733 0.423333,0 0.832554,-0.29633 0.296334,-0.21167 0.649111,-0.635 z m 3.354922,0.23989 q -0.409222,0.40922 -0.874888,0.70555 -0.592666,0.381 -1.044222,0.381 -0.366888,0 -0.592666,-0.254 -0.225778,-0.254 -0.225778,-0.62089 0,-0.93133 1.030111,-1.98966 1.044221,-1.07245 1.961443,-1.07245 0.225777,0 0.366888,0.0988 0.141111,0.0847 0.141111,0.29633 0,0.53623 -1.086554,1.143 -0.804333,0.45156 -1.622777,0.67734 -0.09878,0.29633 -0.09878,0.508 0,0.26811 0.141111,0.46566 0.155223,0.18345 0.409222,0.18345 0.338667,0 0.776111,-0.254 0.225777,-0.127 0.677333,-0.47978 z m 0.09878,-2.27189 q 0,-0.22578 -0.254,-0.22578 -0.423333,0 -0.973666,0.59267 -0.437444,0.47978 -0.705555,0.98777 0.578555,-0.18344 1.142999,-0.50799 0.790222,-0.45156 0.790222,-0.84667 z m 4.836583,2.48355 q -0.296333,0.26811 -0.705555,0.53622 -0.52211,0.33867 -0.790221,0.33867 -0.324556,0 -0.324556,-0.32455 0,-0.127 0.05644,-0.26812 0.05644,-0.15522 0.155222,-0.36688 -0.409222,0.40922 -0.790222,0.635 -0.493888,0.29633 -0.945443,0.29633 -0.324556,0 -0.536222,-0.21167 -0.211667,-0.21166 -0.211667,-0.55033 0,-0.97367 1.213555,-2.06022 1.213555,-1.08656 2.215443,-1.08656 0.197555,0 0.338666,0.0564 0.141111,0.0564 0.141111,0.22578 l -0.07055,0.16933 -0.183445,0.0705 q -0.338666,-0.0705 -0.677332,-0.15522 -0.677333,0 -1.467555,0.90311 -0.77611,0.889 -0.77611,1.56634 0,0.0423 0.04233,0.18344 0.05644,0.127 0.09878,0.22578 0.155222,0.0705 0.211666,0.0988 0.05644,0.0282 0.127,0.0706 0.945444,0 2.271887,-2.04611 1.171221,-1.89089 2.356554,-3.79589 1.439332,-2.0461 2.69522,-2.0461 0.296333,0 0.479777,0.0988 0.183445,0.0847 0.254,0.35278 l -0.08467,0.19756 -0.197556,0.0847 q -0.141111,-0.0282 -0.437444,-0.19755 -0.296333,-0.18345 -0.493888,-0.18345 -0.578556,0 -1.876777,1.89089 -1.015999,1.48167 -2.130776,3.52778 -0.973666,1.77799 -1.03011,2.00377 l 0.112889,0.127 q 0.197555,-0.0847 0.423333,-0.21166 0.225777,-0.14112 0.451555,-0.31045 z m 1.167697,0.84667 q -0.338666,0 -0.338666,-0.31045 0,-0.254 0.451555,-1.03011 0.606778,-1.01599 1.227666,-2.03199 -0.01411,-0.0282 -0.04233,-0.0423 -0.02822,-0.0282 -0.04233,-0.0423 -0.155222,0 -0.465666,0.19755 -0.296333,0.19756 -0.451555,0.33867 l -0.08467,-0.16933 q 0.437444,-0.33867 0.677333,-0.49389 0.493889,-0.31044 0.761999,-0.31044 0.310445,0 0.310445,0.29633 0,0.254 -0.832555,1.55222 -0.818444,1.29822 -0.818444,1.45344 0,0.0988 0.112889,0.0988 0.169333,0 0.479777,-0.22578 0.141111,-0.0988 0.423333,-0.33866 l 0.08467,0.16933 q -0.352778,0.32455 -0.677333,0.55033 -0.479777,0.33867 -0.776111,0.33867 z m 2.963332,-6.30766 q 0.26811,0 0.26811,0.28222 0,0.18344 -0.141111,0.35278 -0.126999,0.15522 -0.296333,0.15522 -0.268111,0 -0.268111,-0.28222 0,-0.19756 0.112889,-0.35278 0.127,-0.15522 0.324556,-0.15522 z m 2.240134,5.70088 q 0,0.15522 0.126999,0.15522 0.127,0 0.437445,-0.22577 0.225777,-0.16934 0.39511,-0.33867 l 0.09878,0.16933 q -0.296333,0.29634 -0.677333,0.55034 -0.493888,0.32455 -0.790221,0.32455 -0.338667,0 -0.338667,-0.28222 0,-0.14111 0.05644,-0.28222 0.05644,-0.15522 0.155222,-0.36689 -0.352778,0.35278 -0.705555,0.59266 -0.479778,0.32456 -0.860777,0.32456 -0.324556,0 -0.508,-0.19756 -0.183444,-0.19755 -0.183444,-0.53622 0,-1.11477 1.28411,-2.17311 1.28411,-1.07244 2.412998,-1.07244 0.310444,0 0.634999,0.0988 0.324556,0.0847 0.324556,0.31044 l -0.08467,0.16933 -0.183444,0.0706 q -0.02822,0 -0.620889,-0.19756 -0.296333,-0.0988 -0.507999,-0.0988 -0.818444,0 -1.679221,0.889 -0.860777,0.889 -0.860777,1.72155 0,0.19756 0.09878,0.33867 0.112888,0.14111 0.310444,0.14111 0.606777,0 1.425221,-0.98778 0.550333,-0.66322 1.044221,-1.53811 h 0.550333 q -0.352777,0.56445 -0.677333,1.12889 -0.677332,1.143 -0.677332,1.31233 z"
           id="text79"
           style="font-size:14.1111px;line-height:0.8;font-family:'AR DECODE';-inkscape-font-specification:'AR DECODE, Normal';text-align:end;letter-spacing:0.264583px;word-spacing:0.0529167px;text-anchor:end;opacity:0.995283;stroke:#000000;stroke-width:0.435;stroke-opacity:0.996078"
           aria-label="Media" /><path
           d="m 43.553929,145.6849 q -0.860777,0 -1.495777,-0.22578 -0.860777,-0.31044 -1.044221,-0.97367 l 0.09878,-0.254 0.239888,-0.0988 q 0.127,0.0423 0.733778,0.74789 0.493888,0.56444 1.481665,0.56444 0.931333,0 1.848554,-0.49389 0.762,-0.40922 1.523999,-1.18533 -0.663222,-0.32456 -1.058333,-1.00189 -0.380999,-0.69144 -0.380999,-1.45344 0,-2.35656 2.271887,-3.90878 2.031998,-1.397 4.501441,-1.397 0.705555,0 1.086555,0.0706 0.677332,0.127 0.90311,0.508 0,0.16933 -0.183444,0.19755 -0.762,-0.22577 -1.128888,-0.32455 -0.691444,-0.19756 -1.199444,-0.19756 -2.102554,0 -3.824108,1.55222 -1.777999,1.60867 -1.777999,3.69711 0,0.64911 0.239889,1.18533 0.239889,0.52212 0.761999,0.81845 0.169334,-0.21167 1.580444,-2.51178 1.15711,-1.87677 2.031998,-2.82222 1.255888,-1.35466 2.356554,-1.35466 0.08467,0 0.197555,0.0282 0.112889,0.0282 0.225778,0.0564 l 0.169333,0.254 -0.169333,0.18345 q -0.155222,-0.0423 -0.310444,-0.0847 -0.155222,-0.0423 -0.197556,-0.0423 -0.931332,0 -1.354665,2.13077 -0.268111,2.32834 -0.310445,2.667 l -0.112888,0.98778 -0.127,0.762 -0.01411,0.0847 0.04233,-0.0565 0.522111,-0.81844 q 0.959554,-1.49578 1.919109,-3.00567 1.269999,-1.84855 2.483554,-2.82222 1.552221,-1.25589 3.20322,-1.25589 0.380999,0 0.606777,0.0565 0.225778,0.0564 0.338666,0.0847 l 0.352778,0.40922 -0.211667,0.23989 q -0.197555,-0.0423 -0.663221,-0.21167 -0.451556,-0.18344 -0.832555,-0.18344 -1.989665,0 -3.951108,2.39888 -1.523999,2.24367 -3.047998,4.48733 -1.650999,2.413 -2.82222,2.413 -0.310444,0 -0.465666,-0.28222 l 0.08467,-0.19756 q 0.09878,-0.0564 0.239889,-0.0564 0.04233,0 0.366889,0.0705 0.127,0.0282 0.253999,0.0282 0.07056,0 0.183445,-0.0423 0.127,-0.0564 0.239888,-0.0988 0.451556,-0.36689 0.649111,-2.06023 0.296333,-2.53999 0.451555,-3.16088 0.451555,-1.86267 1.509888,-2.62467 -0.776111,0.18345 -1.79211,1.524 -0.606777,0.80434 -1.749776,2.68111 -1.072444,1.778 -1.552221,2.30011 0.296333,0.0423 0.592666,0.0847 0.691444,0 1.312332,-0.42334 l 0.112889,0.15523 q -0.324555,0.26811 -0.663222,0.381 -0.338666,0.0988 -0.761999,0.0988 -0.141111,0 -0.268111,0 -0.112889,-0.0141 -0.536222,-0.0705 -0.634999,0.80433 -1.66511,1.29822 -1.015999,0.49389 -2.046109,0.49389 z m 12.925768,-1.53811 q -0.366889,0.55033 -0.903111,0.93133 -0.620888,0.43744 -1.213554,0.43744 -0.874889,0 -0.874889,-0.90311 0,-1.04422 0.959555,-3.00566 0.959555,-1.97555 2.17311,-3.37255 1.41111,-1.60867 2.483553,-1.60867 0.197556,0 0.395111,0.0847 l 0.155222,0.19755 -0.05644,0.14111 -0.141111,0.0564 q -0.09878,-0.0141 -0.324555,-0.0988 -0.211667,-0.0847 -0.324556,-0.0847 -0.747888,0 -1.904998,1.55223 -1.001888,1.34055 -1.862665,3.17499 -0.846667,1.83445 -0.846667,2.63878 0,0.67733 0.635,0.67733 0.423333,0 0.832555,-0.29633 0.296333,-0.21167 0.649111,-0.635 z m 3.538366,0.69144 q 0,0.15522 0.127,0.15522 0.126999,0 0.437444,-0.22577 0.225777,-0.16934 0.39511,-0.33867 l 0.09878,0.16933 q -0.296333,0.29634 -0.677333,0.55034 -0.493888,0.32455 -0.790221,0.32455 -0.338667,0 -0.338667,-0.28222 0,-0.14111 0.05645,-0.28222 0.05644,-0.15522 0.155222,-0.36689 -0.352778,0.35278 -0.705555,0.59267 -0.479778,0.32455 -0.860777,0.32455 -0.324556,0 -0.508,-0.19755 -0.183444,-0.19756 -0.183444,-0.53623 0,-1.11477 1.28411,-2.17311 1.28411,-1.07244 2.412998,-1.07244 0.310444,0 0.635,0.0988 0.324555,0.0847 0.324555,0.31044 l -0.08467,0.16934 -0.183444,0.0705 q -0.02822,0 -0.620888,-0.19755 -0.296334,-0.0988 -0.508,-0.0988 -0.818444,0 -1.679221,0.889 -0.860777,0.889 -0.860777,1.72155 0,0.19756 0.09878,0.33867 0.112888,0.14111 0.310444,0.14111 0.606777,0 1.425221,-0.98778 0.550333,-0.66322 1.044221,-1.53811 h 0.550333 q -0.352777,0.56445 -0.677333,1.12889 -0.677332,1.143 -0.677332,1.31233 z m 1.760369,0.55034 q 0.832555,-1.21356 1.396999,-2.159 0.508,-0.86078 0.578555,-1.11478 l -0.08467,-0.0988 q -0.127,0 -0.324556,0.127 -0.183444,0.11289 -0.550333,0.42334 l -0.09878,-0.15523 q 0.296333,-0.28222 0.663221,-0.52211 0.493889,-0.32455 0.762,-0.32455 0.296333,0 0.296333,0.26811 0,0.21166 -0.112889,0.43744 -0.02822,0.0564 -0.239889,0.39511 0.536222,-0.508 0.959555,-0.77611 0.606778,-0.381 1.15711,-0.381 0.296334,0 0.493889,0.18345 0.211666,0.16933 0.211666,0.46566 0,0.508 -1.114776,1.43934 -1.100666,0.91722 -1.100666,1.32644 0,0.19755 0.183444,0.19755 0.141111,0 0.423333,-0.0847 0.282222,-0.0847 0.423333,-0.0847 0.07056,0 0.211667,0.0564 l 0.07055,0.16933 -0.08467,0.19755 q -0.09878,0.0706 -0.211666,0.0706 -0.395111,0 -1.001888,-0.0282 -0.592666,-0.0141 -0.649111,-0.0423 l -0.05644,-0.16933 q 0,-0.39511 1.086555,-1.35466 1.100665,-0.97367 1.100665,-1.46756 0,-0.18344 -0.141111,-0.29633 -0.127,-0.127 -0.324555,-0.127 -1.03011,0 -2.300109,1.905 -0.141111,0.21166 -0.917222,1.524 z m 6.275907,0.11288 q -0.465666,0 -0.705555,-0.26811 -0.225777,-0.28222 -0.225777,-0.762 0,-1.03011 1.114777,-2.00377 1.128888,-0.98778 2.18722,-0.98778 0.211667,0 0.381,0.0847 0.169333,0.0705 0.169333,0.23989 0,0.23988 -0.296333,0.23988 -0.141111,0 -0.423333,-0.0847 -0.282222,-0.0847 -0.437444,-0.0847 -0.747888,0 -1.396999,0.86078 -0.635,0.84666 -0.635,1.63689 0,0.33866 0.127,0.53622 0.127,0.18344 0.451556,0.18344 0.620888,0 1.15711,-0.635 0.536222,-0.635 0.536222,-1.27 0,-0.0988 -0.07056,-0.32455 -0.07055,-0.22578 -0.07055,-0.33867 0,-0.0988 0.07055,-0.16933 0.08467,-0.0847 0.183444,-0.0847 0.197556,0 0.268111,0.21167 0.08467,0.19755 0.08467,0.42333 0,0.81845 -0.832555,1.70744 -0.832555,0.889 -1.636888,0.889 z m 4.878924,-0.55033 q -0.649111,0.52211 -1.580443,0.52211 -0.366889,0 -0.522111,-0.0564 -0.268111,-0.0988 -0.352777,-0.36689 l 0.08467,-0.18345 0.169333,-0.0705 0.437444,0.11289 q 0.889,-0.36689 1.890888,-2.48356 1.368777,-2.89277 1.876776,-3.59833 1.326444,-1.84855 3.189109,-1.84855 0.366888,0 0.592666,0.0988 0.239889,0.0988 0.338666,0.40922 l -0.08467,0.18344 -0.183444,0.0706 q -0.112889,-0.0141 -0.747889,-0.28222 -0.268111,-0.11289 -0.52211,-0.11289 -1.185333,0 -2.201332,1.67922 -0.846666,1.70744 -1.693332,3.40077 -1.058333,2.032 -2.158998,2.56822 0.26811,0.11289 0.536221,0.11289 0.437444,0 0.846666,-0.26811 z m 4.272141,-0.11289 q 0,0.15522 0.127,0.15522 0.127,0 0.437444,-0.22577 0.225778,-0.16934 0.395111,-0.33867 l 0.09878,0.16933 q -0.296333,0.29634 -0.677333,0.55034 -0.493888,0.32455 -0.790222,0.32455 -0.338666,0 -0.338666,-0.28222 0,-0.14111 0.05644,-0.28222 0.05644,-0.15522 0.155223,-0.36689 -0.352778,0.35278 -0.705555,0.59267 -0.479778,0.32455 -0.860778,0.32455 -0.324555,0 -0.507999,-0.19755 -0.183445,-0.19756 -0.183445,-0.53623 0,-1.11477 1.284111,-2.17311 1.28411,-1.07244 2.412998,-1.07244 0.310444,0 0.634999,0.0988 0.324556,0.0847 0.324556,0.31044 l -0.08467,0.16934 -0.183444,0.0705 q -0.02822,0 -0.620889,-0.19755 -0.296333,-0.0988 -0.507999,-0.0988 -0.818444,0 -1.679221,0.889 -0.860777,0.889 -0.860777,1.72155 0,0.19756 0.09878,0.33867 0.112889,0.14111 0.310445,0.14111 0.606777,0 1.425221,-0.98778 0.550333,-0.66322 1.044221,-1.53811 h 0.550333 q -0.352778,0.56445 -0.677333,1.12889 -0.677333,1.143 -0.677333,1.31233 z"
           id="text80"
           style="font-size:14.1111px;line-height:0.8;font-family:'AR DECODE';-inkscape-font-specification:'AR DECODE, Normal';text-align:end;letter-spacing:0.264583px;word-spacing:0.0529167px;text-anchor:end;opacity:0.995283;stroke:#000000;stroke-width:0.435;stroke-opacity:0.996078"
           aria-label="Manola" /></g></g></g></svg>
